# Blender v2.82 (sub 7) OBJ File: ''
# www.blender.org
mtllib divider.mtl
o Cube
v 1.209503 4.606267 -0.547342
v 1.209503 -4.606267 -0.547342
v 1.209503 4.606267 0.547342
v 1.209503 -4.606267 0.547342
v -1.209503 4.606267 -0.547342
v -1.209503 -4.606267 -0.547342
v -1.209503 4.606267 0.547342
v -1.209503 -4.606267 0.547342
vt 0.506036 0.640134
vt 0.523649 0.613805
vt 0.464960 0.623067
vt 0.460283 0.640171
vt 0.460459 0.256209
vt 0.465096 0.287779
vt 0.504880 0.287832
vt 0.506009 0.256278
vn 0.0000 1.0000 0.0000
vn 0.0000 0.0000 1.0000
vn -1.0000 0.0000 0.0000
vn 0.0000 -1.0000 0.0000
vn 1.0000 0.0000 0.0000
vn 0.0000 0.0000 -1.0000
usemtl Material
s off
f 1/1/1 5/2/1 7/3/1 3/4/1
f 4/5/2 3/4/2 7/3/2 8/6/2
f 8/6/3 7/3/3 5/2/3 6/7/3
f 6/7/4 2/8/4 4/5/4 8/6/4
f 2/8/5 1/1/5 3/4/5 4/5/5
f 6/7/6 5/2/6 1/1/6 2/8/6
